<?xml version="1.0" encoding="UTF-8"?>
<svg id="Layer_2" data-name="Layer 2" xmlns="http://www.w3.org/2000/svg" xmlns:xlink="http://www.w3.org/1999/xlink" viewBox="0 0 426.71 161.74">
  <defs>
    <style>
      .cls-1 {
        fill: none;
        stroke: #231f20;
        stroke-miterlimit: 10;
        stroke-width: 2px;
      }

      .cls-1, .cls-2 {
        font-family: CenturyGothic-Bold, 'Century Gothic';
        font-size: 125.76px;
        font-weight: 700;
      }

      .cls-1, .cls-2, .cls-3 {
        isolation: isolate;
      }

      .cls-2 {
        fill: #231f20;
      }

      .cls-4 {
        fill: url(#linear-gradient);
      }
    </style>
    <linearGradient id="linear-gradient" x1="39.93" y1="90.28" x2="167.27" y2="90.28" gradientTransform="translate(0 163.15) scale(1 -1)" gradientUnits="userSpaceOnUse">
      <stop offset=".21" stop-color="#320037"/>
      <stop offset=".5" stop-color="#2f4a9f"/>
      <stop offset=".79" stop-color="#f069a7"/>
    </linearGradient>
  </defs>
  <path class="cls-4" d="M131.13,36.72c-9.82,0-18.73,3.94-25.26,10.31,4.13,4.76,7.15,10.51,8.63,16.85,3.2-5.9,9.45-9.92,16.63-9.92,10.42,0,18.9,8.48,18.9,18.9s-8.48,18.9-18.9,18.9-18.9-8.48-18.9-18.9c0-19.93-16.22-36.15-36.15-36.15s-36.15,16.22-36.15,36.15,16.22,36.15,36.15,36.15c9.82,0,18.73-3.94,25.25-10.31-4.13-4.76-7.15-10.52-8.63-16.85-3.2,5.9-9.45,9.92-16.63,9.92-10.42,0-18.9-8.48-18.9-18.9s8.48-18.9,18.9-18.9,18.9,8.48,18.9,18.9c0,19.93,16.22,36.15,36.15,36.15s36.15-16.22,36.15-36.15-16.22-36.15-36.15-36.15h.01Z"/>
  <g class="cls-3">
    <text class="cls-2" transform="translate(2.89 109.03)"><tspan x="0" y="0" xml:space="preserve">l    ped</tspan></text>
    <text class="cls-1" transform="translate(2.89 109.03)"><tspan x="0" y="0" xml:space="preserve">l    ped</tspan></text>
  </g>
</svg>